<svg xmlns="http://www.w3.org/2000/svg" viewBox="0 0 512 512">
<g><path d="M470.047 415.56c23.595-3.238 41.834-23.517 41.834-47.988 0-26.716-21.735-48.451-48.451-48.451-26.335 0-47.814 21.122-48.423 47.311a48.848 48.848 0 0 0-5.845-.357c-11.3 0-22.005 3.843-30.631 10.909a18.959 18.959 0 0 0-5.657-.859h-14.393v-37.484c0-31.528-8.65-61.07-23.687-86.395a71.106 71.106 0 0 0 2.219-17.622v-43.946h15.956c14.547 0 26.382-11.835 26.382-26.382v-48.733c0-9.51-1.744-18.786-5.183-27.57a7.485 7.485 0 0 0-13.94 5.458c2.755 7.037 4.152 14.477 4.152 22.112v48.733c0 6.292-5.119 11.411-11.411 11.411h-15.956v-23.096c0-39.1-31.81-70.91-70.91-70.91h-27.651l9.114-7.237c15.901-12.624 35.837-19.576 56.139-19.576 13.963 0 27.592 4.858 38.378 13.678a7.485 7.485 0 0 0 9.477-11.589c-13.453-11.001-30.448-17.06-47.856-17.06-23.668 0-46.91 8.105-65.448 22.822l-14.151 11.236v-2.853c0-5.186-2.284-9.837-5.885-13.038 5.294-6.06 13.005-9.659 21.227-9.659 3.65 0 7.024-1.824 9.024-4.878a10.76 10.76 0 0 0 .866-10.231C240.383 12.765 217.163 0 188.737 0s-51.646 12.765-60.601 33.314a10.762 10.762 0 0 0 .866 10.232c2 3.055 5.373 4.878 9.024 4.878 8.059 0 15.642 3.476 20.929 9.334-3.811 3.207-6.242 8.004-6.242 13.363v.748l-11.501-9.131c-18.536-14.717-41.779-22.822-65.447-22.822-41.711 0-75.647 33.935-75.647 75.647v48.733c0 14.547 11.836 26.382 26.383 26.382h13.96v43.946c0 5.973.752 11.879 2.217 17.611-15.326 25.933-23.686 55.757-23.686 86.406v78.077c0 12.382 10.074 22.457 22.457 22.457h60.347c26.356 0 47.798-21.442 47.798-47.798v-80.758c0-1.724.124-3.418.341-5.084h77.604c.217 1.666.341 3.36.341 5.084v18.587l-26.27-9.389a16.73 16.73 0 0 0-15.047 1.95 16.723 16.723 0 0 0-7.242 13.333 16.775 16.775 0 0 0 6.216 13.42l53.193 42.814-51.398 15.697h-.001a17.256 17.256 0 0 0-12.018 13.618 17.254 17.254 0 0 0 6.728 16.872 17.449 17.449 0 0 0 10.355 3.432h180.479c5.863 0 11.111-2.669 14.603-6.853l30.696 12.174a48.19 48.19 0 0 0-3.195 17.276c0 6.636 1.32 13.069 3.922 19.123a7.487 7.487 0 0 0 13.755-5.913 33.258 33.258 0 0 1-2.706-13.211c0-18.461 15.02-33.481 33.481-33.481s33.48 15.02 33.48 33.481-15.019 33.48-33.48 33.48c-3.389 0-6.728-.503-9.926-1.494-3.948-1.219-8.143.985-9.367 4.934a7.488 7.488 0 0 0 4.934 9.367 48.441 48.441 0 0 0 14.359 2.165c26.716 0 48.451-21.735 48.451-48.451 0-24.473-18.24-44.752-41.835-47.99zm-6.617-81.468c18.461 0 33.48 15.019 33.48 33.48s-15.019 33.48-33.48 33.48-33.481-15.019-33.481-33.48 15.02-33.48 33.481-33.48zM167.684 71.122a2.498 2.498 0 0 1 2.495-2.495h36.461a2.498 2.498 0 0 1 2.495 2.495v13.074a2.498 2.498 0 0 1-2.495 2.495h-36.461a2.498 2.498 0 0 1-2.495-2.495zm-22.905-37.134c9.405-13.906 28.275-19.017 43.958-19.017s34.551 5.109 43.957 19.015a43.205 43.205 0 0 0-29.784 19.67h-28.353a43.258 43.258 0 0 0-29.778-19.668zM26.501 175.707c-6.293 0-11.412-5.119-11.412-11.411v-48.733c0-33.457 27.219-60.676 60.676-60.676 20.302 0 40.239 6.952 56.138 19.576l9.115 7.237h-29.646c-39.1 0-70.91 31.81-70.91 70.91v23.096H26.501zm108.122 134.911v80.758c0 18.101-14.726 32.827-32.827 32.827H41.449c-4.128 0-7.486-3.358-7.486-7.486V338.64c-.01-29.372 8.424-57.91 23.778-82.363a154.666 154.666 0 0 1 27.26-32.504 7.485 7.485 0 0 0 .535-10.572 7.484 7.484 0 0 0-10.572-.535A169.322 169.322 0 0 0 55.432 233.6v-80.989c0-30.845 25.094-55.939 55.939-55.939h46.608c3.151 3.082 7.455 4.99 12.2 4.99h36.461c4.745 0 9.049-1.908 12.2-4.99h47.263c30.845 0 55.939 25.094 55.939 55.939v81.061c-15.719-19.919-35.801-36.239-58.787-47.518.372.027.742.057 1.121.057 8.46 0 15.318-6.858 15.318-15.318s-6.858-15.318-15.318-15.318-15.318 6.858-15.318 15.318c0 4.27 1.75 8.127 4.568 10.905-20.001-8.306-41.917-12.902-64.888-12.902a170.089 170.089 0 0 0-64.811 12.832 15.27 15.27 0 0 0 4.491-10.835c0-8.46-6.858-15.318-15.318-15.318s-15.318 6.858-15.318 15.318 6.858 15.318 15.318 15.318c.332 0 .656-.029.982-.05a167.758 167.758 0 0 0-9.813 5.214 7.483 7.483 0 0 0-2.759 10.219 7.482 7.482 0 0 0 10.219 2.759c23.318-13.403 49.947-20.487 77.009-20.487 85.342 0 154.773 69.431 154.773 154.774v37.415h-67.832c-18.101 0-32.827-14.726-32.827-32.827v-32.611c0-23.847-15.512-44.126-36.97-51.314l20.416-23.694c5.237-6.077 6.413-14.383 3.07-21.677s-10.404-11.824-18.426-11.824h-44.409c-8.023 0-15.083 4.53-18.426 11.824-3.342 7.293-2.166 15.6 3.071 21.677l20.416 23.694c-21.459 7.189-36.971 27.468-36.971 51.315zm54.114-54.617c-.229 0-.337-.126-.378-.173l-25.841-29.99c-2.003-2.325-1.228-4.738-.802-5.667.426-.93 1.748-3.091 4.816-3.091h44.409c3.069 0 4.391 2.162 4.817 3.091.426.93 1.201 3.342-.802 5.667l-25.841 29.99c-.041.047-.149.173-.378.173zm-33.599 34.562c6.844-11.423 19.341-19.088 33.599-19.088 14.257 0 26.754 7.665 33.599 19.088zm39.149 44.916c.171-1.316.994-1.881 2.284-1.566l31.358 11.208a47.502 47.502 0 0 0 8.172 24.878l-41.175-33.142a1.718 1.718 0 0 1-.639-1.378zm178.587 90.502H192.395c-2.668-.139-3.399-3.706-.691-4.633h-.001l87.375-26.685a81.742 81.742 0 0 1 23.894-3.567h69.902a4.055 4.055 0 0 1 4.051 4.051v26.783a4.055 4.055 0 0 1-4.051 4.051zm52.854 7.183-33.832-13.418v-24.599c0-2.904-.673-5.647-1.842-8.111 5.568-3.888 12.173-5.989 19.108-5.989 2.721 0 5.409.344 8.021.986 5.527 17.637 20.889 30.956 39.63 33.528-12.509 1.716-23.507 8.219-31.085 17.603z" fill="#000000" opacity="1" data-original="#000000" class=""></path><circle cx="353.362" cy="407.723" r="9.442" transform="rotate(-10.89 353.644 407.903)" fill="#000000" opacity="1" data-original="#000000" class=""></circle></g>
</svg>
